<?xml version="1.0" encoding="utf-8"?>
<!-- Generator: Adobe Illustrator 19.0.0, SVG Export Plug-In . SVG Version: 6.00 Build 0)  -->
<svg version="1.1" id="Layer_1" xmlns="http://www.w3.org/2000/svg" xmlns:xlink="http://www.w3.org/1999/xlink" x="0px" y="0px"
	 viewBox="-123.2 219.4 140 63" style="enable-background:new -123.2 219.4 140 63;" xml:space="preserve">
<style type="text/css">
	.st0{fill:#F2CA26;}
</style>
<g>
	<path class="st0" d="M-97.5,239.1c-2.3-2-6-3-11.1-3c-2.6,0-4.8,0.3-6.6,0.8c-1.8,0.5-3.4,1.3-4.6,2.2c-1.2,0.9-2.1,2-2.6,3.3
		c-0.5,1.3-0.8,2.6-0.8,4v2.1h7.3c0-1.7,0.5-3.1,1.5-4.3c1-1.2,2.9-1.8,5.8-1.8c1.4,0,2.6,0.2,3.6,0.5c0.9,0.3,1.7,0.7,2.3,1.2
		c0.6,0.5,1,1.1,1.2,1.7c0.2,0.6,0.3,1.2,0.3,1.8v1.6c0,0.7-0.1,1.3-0.4,1.8c-0.3,0.5-0.6,1-0.9,1.4c-0.3,0.4-0.7,0.7-1.1,0.9
		c-0.4,0.2-0.7,0.4-0.9,0.5c-0.2,0.1-0.8,0.3-1.7,0.6c-0.9,0.3-2,0.7-3.2,1.2c-1.2,0.4-2.5,0.9-3.8,1.3c-1.3,0.5-2.5,0.9-3.5,1.2
		c-2.1,0.7-3.7,2-4.8,3.8c-1.1,1.8-1.7,3.8-1.7,5.9v4c0,1,0.2,2.2,0.6,3.4c0.4,1.2,1.1,2.4,2.2,3.4c1.1,1,2.6,1.9,4.5,2.6
		s4.4,1,7.4,1c3,0,5.5-0.3,7.4-1c1.9-0.7,3.4-1.5,4.5-2.6c1.1-1,1.8-2.2,2.2-3.4c0.4-1.2,0.6-2.4,0.6-3.4v-2.5v-18.8v-4.1
		C-94,243.6-95.1,241.1-97.5,239.1z M-101.2,269.5c0,2.1-0.5,3.7-1.5,4.8c-1,1.1-3,1.7-5.8,1.7c-2.8,0-4.7-0.5-5.8-1.6
		c-1-1.1-1.5-2.7-1.5-4.9c0-1.1,0.2-2,0.6-2.7c0.4-0.7,0.9-1.3,1.4-1.8c0.6-0.5,1.3-0.9,2-1.2c0.9-0.3,1.9-0.7,2.9-1
		c0.9-0.3,1.8-0.6,2.8-1c1-0.4,1.9-0.7,2.8-1c0.4-0.1,0.8-0.3,1.3-0.6c0.5-0.3,0.7-0.7,0.9-1.3L-101.2,269.5L-101.2,269.5z"/>
	<rect x="-86.6" y="219.4" class="st0" width="7.2" height="62.3"/>
	<path class="st0" d="M-50,269.7L-50,269.7l-0.1,0.9c0,0.5-0.1,1.1-0.3,1.7c-0.2,0.6-0.5,1.2-1,1.7s-1.3,1-2.2,1.3
		c-1,0.4-2.3,0.6-4,0.6c-1.6,0-2.9-0.2-3.8-0.6c-0.9-0.4-1.7-0.8-2.1-1.4c-0.5-0.5-0.8-1.1-0.9-1.8c-0.1-0.6-0.2-1.2-0.2-1.6v-0.9
		h-0.1v-32.9h-7.2V271v0.9c0,0.6,0.1,1.5,0.3,2.7c0.2,1.2,0.8,2.3,1.8,3.5c1,1.1,2.4,2.1,4.4,3c1.9,0.8,4.6,1.2,8.1,1.2
		c3.4,0,6.1-0.4,8.1-1.2c1.9-0.8,3.4-1.8,4.4-3c1-1.1,1.6-2.3,1.8-3.4c0.2-1.1,0.3-2.1,0.3-2.7v-1.5v-33.6H-50L-50,269.7L-50,269.7z
		"/>
	<path class="st0" d="M-28.8,237.5c-1.9,0.8-3.4,1.8-4.4,3c-1,1.1-1.6,2.3-1.8,3.5c-0.2,1.2-0.3,2.1-0.3,2.7v2v33.1h7.3v-32.8v-0.8
		c0-0.5,0.1-1.1,0.2-1.7c0.1-0.6,0.5-1.2,1-1.7c0.5-0.5,1.3-1,2.2-1.4c2.1-0.9,6.4-0.7,7.1-0.7l1.6-6.3c-0.8-0.1-3.4-0.2-4.4-0.2
		C-23.7,236.1-26.8,236.7-28.8,237.5z"/>
	<path class="st0" d="M13.3,239.1c-2.3-2-6-3-11.1-3c-2.6,0-4.8,0.3-6.6,0.8c-1.8,0.5-3.4,1.3-4.6,2.2c-1.2,0.9-2.1,2-2.6,3.3
		c-0.5,1.3-0.8,2.6-0.8,4v2.1h7.3c0-1.7,0.5-3.1,1.5-4.3c1-1.2,2.9-1.8,5.8-1.8c1.4,0,2.6,0.2,3.6,0.5c0.9,0.3,1.7,0.7,2.3,1.2
		c0.6,0.5,1,1.1,1.2,1.7c0.2,0.6,0.3,1.2,0.3,1.8v1.6c0,0.7-0.1,1.3-0.4,1.8c-0.3,0.5-0.6,1-0.9,1.4c-0.3,0.4-0.7,0.7-1.1,0.9
		c-0.4,0.2-0.7,0.4-0.9,0.5c-0.2,0.1-0.8,0.3-1.7,0.6c-0.9,0.3-2,0.7-3.2,1.2c-1.2,0.4-2.5,0.9-3.8,1.3c-1.3,0.5-2.5,0.9-3.5,1.2
		c-2.1,0.7-3.7,2-4.8,3.8c-1.1,1.8-1.7,3.8-1.7,5.9v4c0,1,0.2,2.2,0.6,3.4c0.4,1.2,1.1,2.4,2.2,3.4c1.1,1,2.6,1.9,4.5,2.6
		s4.4,1,7.4,1c3,0,5.5-0.3,7.4-1c1.9-0.7,3.4-1.5,4.5-2.6c1.1-1,1.8-2.2,2.2-3.4c0.4-1.2,0.6-2.4,0.6-3.4v-2.5v-18.8v-4.1
		C16.8,243.6,15.7,241.1,13.3,239.1z M9.6,269.5c0,2.1-0.5,3.7-1.5,4.8s-3,1.7-5.8,1.7c-2.8,0-4.7-0.5-5.8-1.6
		c-1-1.1-1.5-2.7-1.5-4.9c0-1.1,0.2-2,0.6-2.7c0.4-0.7,0.9-1.3,1.4-1.8c0.6-0.5,1.3-0.9,2-1.2c0.9-0.3,1.9-0.7,2.9-1
		c0.9-0.3,1.8-0.6,2.8-1c1-0.4,1.9-0.7,2.8-1c0.4-0.1,0.8-0.3,1.3-0.6c0.5-0.3,0.7-0.7,0.9-1.3L9.6,269.5L9.6,269.5z"/>
</g>
</svg>
